<svg width="46" height="46" fill="#904f16" viewBox="0 0 24 24" xmlns="http://www.w3.org/2000/svg">
  <path d="M20.82 1.5H3.294c-.957 0-1.794.69-1.794 1.635v17.566c0 .951.837 1.799 1.794 1.799h17.521c.963 0 1.685-.854 1.685-1.8V3.136c.006-.946-.722-1.635-1.68-1.635ZM8.01 19.005H5V9.65h3.01v9.354ZM6.61 8.228h-.022c-.963 0-1.586-.716-1.586-1.613C5.002 5.7 5.642 5 6.626 5c.984 0 1.587.695 1.608 1.614 0 .897-.624 1.613-1.625 1.613Zm12.395 10.777h-3.009V13.89c0-1.225-.438-2.063-1.526-2.063-.832 0-1.324.563-1.543 1.111-.082.197-.104.465-.104.739v5.328H9.815V9.65h3.008v1.301c.438-.623 1.122-1.52 2.713-1.52 1.975 0 3.469 1.301 3.469 4.108v5.465Z"></path>
</svg>